PathFileType	4	(X/Y/Z)	C:/Users/dbak576/Desktop/Duncan Bakke Modelling Files/H27s1/Static_H27s1.trc	
DataRate	CameraRate	NumFrames	NumMarkers	Units	OrigDataRate	OrigDataStartFrame	OrigNumFrames	
200.00	200.00	5	61	mm	200.00	1502	70	
Frame#	Time	LFHD			RFHD			LBHD			RBHD			C7			T10			CLAV			STRN			RBack			LASI			RASI			LPSI			RPSI			RACR1			RUA1			RElbow			RElbowM			RFA1			RWRR			RWRU			RCAR			LACR1			LUA1			LElbow			LElbowM			LFA1			LWRR			LWRU			LCAR			RTH1			RTH3			RTH2			RTH4			RLFC			RMFC			RTB1			RTB3			RTB2			RTB4			RLMAL			RMMAL			RCAL			RMT1			RMT5			RToe			LTH1			LTH3			LTH2			LTH4			LLFC			LMFC			LTB1			LTB3			LTB2			LTB4			LLMAL			LMMAL			LCAL			LMT1			LMT5			LToe			
		X1	Y1	Z1	X2	Y2	Z2	X3	Y3	Z3	X4	Y4	Z4	X5	Y5	Z5	X6	Y6	Z6	X7	Y7	Z7	X8	Y8	Z8	X9	Y9	Z9	X10	Y10	Z10	X11	Y11	Z11	X12	Y12	Z12	X13	Y13	Z13	X14	Y14	Z14	X15	Y15	Z15	X16	Y16	Z16	X17	Y17	Z17	X18	Y18	Z18	X19	Y19	Z19	X20	Y20	Z20	X21	Y21	Z21	X22	Y22	Z22	X23	Y23	Z23	X24	Y24	Z24	X25	Y25	Z25	X26	Y26	Z26	X27	Y27	Z27	X28	Y28	Z28	X29	Y29	Z29	X30	Y30	Z30	X31	Y31	Z31	X32	Y32	Z32	X33	Y33	Z33	X34	Y34	Z34	X35	Y35	Z35	X36	Y36	Z36	X37	Y37	Z37	X38	Y38	Z38	X39	Y39	Z39	X40	Y40	Z40	X41	Y41	Z41	X42	Y42	Z42	X43	Y43	Z43	X44	Y44	Z44	X45	Y45	Z45	X46	Y46	Z46	X47	Y47	Z47	X48	Y48	Z48	X49	Y49	Z49	X50	Y50	Z50	X51	Y51	Z51	X52	Y52	Z52	X53	Y53	Z53	X54	Y54	Z54	X55	Y55	Z55	X56	Y56	Z56	X57	Y57	Z57	X58	Y58	Z58	X59	Y59	Z59	X60	Y60	Z60	X61	Y61	Z61	

36	0.175	-50.85265	-365.16556	1605.50098	43.24557	-364.69516	1600.84131	-81.81342	-519.19427	1560.14819	62.34525	-516.42059	1562.15405	-13.49200	-558.67999	1420.43030	-22.64363	-577.60272	1141.88049	-14.66546	-411.39948	1365.90198	-11.03419	-344.32385	1279.07800	89.42509	-594.61591	1314.10083	-147.06122	-308.10721	969.03632	139.85744	-331.21188	986.41327	-67.23666	-556.60773	976.71680	21.71921	-562.40912	978.95605	107.70861	-506.32736	1417.51953	280.01135	-521.62793	1391.66736	398.43994	-537.84711	1335.18774	397.45383	-458.52814	1284.00818	534.35199	-533.68610	1308.54150	648.93542	-505.14005	1378.28784	654.07660	-491.70276	1310.00720	706.07288	-539.27570	1344.40454	-139.74353	-507.92130	1417.11768	-308.30923	-512.61835	1397.77954	-433.64432	-507.99533	1359.21033	-432.27527	-455.43219	1310.57324	-561.92316	-499.32074	1349.18884	-676.59003	-470.12357	1420.95728	-680.57031	-449.79858	1355.77026	-734.45966	-491.27448	1393.17834	221.27921	-412.02518	756.07452	196.02881	-444.52051	588.71753	186.01988	-374.81125	665.82654	206.42104	-430.05630	671.36121	181.13440	-464.10425	504.35901	30.57947	-463.65222	485.53943	135.98448	-426.49564	344.41528	159.23941	-442.20325	174.82970	202.62479	-460.45483	269.10663	148.98036	-437.63004	254.51978	197.45093	-489.17920	65.98446	116.38078	-464.63989	61.84353	160.37929	-542.24915	25.44979	153.10612	-364.85669	33.39470	231.28412	-403.73538	28.00077	189.80598	-298.08105	27.43721	-244.91560	-410.15363	765.49664	-198.39638	-446.01324	605.15240	-199.63657	-372.81827	681.31958	-216.64281	-428.66974	687.28607	-177.31166	-469.21567	485.41864	-27.10772	-481.88037	475.00632	-118.59643	-433.23990	339.94916	-139.01094	-450.75119	169.40546	-184.23648	-465.61258	261.36334	-127.35555	-442.98666	253.99443	-172.47032	-496.42960	62.46314	-89.35761	-473.08728	56.51110	-133.00674	-553.89722	28.91411	-123.48336	-372.44025	27.55345	-199.12015	-410.97842	25.11033	-160.56253	-305.72217	22.53006 
37	0.180	-50.84422	-365.20996	1605.54480	43.33532	-364.38281	1600.88623	-81.84402	-519.24805	1560.15723	62.00316	-517.31464	1562.02747	-13.49367	-558.69501	1420.43884	-22.62083	-577.62433	1141.86987	-14.63146	-411.39435	1365.91968	-11.05241	-344.33493	1279.08521	89.40601	-594.66119	1314.12061	-147.04562	-308.14520	969.02295	139.85268	-331.16629	986.40778	-67.22138	-556.56305	976.72626	21.61694	-562.54138	979.05469	107.68806	-506.35983	1417.51904	280.01700	-521.59778	1391.62598	398.44690	-537.85577	1335.19641	397.44730	-458.53561	1284.06104	534.34473	-533.67865	1308.54370	648.95880	-505.09500	1378.27478	653.87341	-491.57977	1309.97388	706.09125	-539.18378	1344.43445	-139.79167	-507.99139	1417.13159	-308.33511	-512.61804	1397.79736	-433.68149	-508.00919	1359.21057	-432.26874	-455.32129	1310.65405	-561.94092	-499.22809	1348.97424	-676.54236	-470.12561	1420.89624	-681.03162	-450.32437	1356.31763	-734.20947	-490.96066	1392.97925	221.29330	-412.04752	756.08490	196.05226	-444.52634	588.73792	186.02968	-374.84402	665.82880	206.41570	-430.06848	671.35858	181.13240	-464.09872	504.38766	30.65373	-463.43729	485.55975	135.96191	-426.43594	344.43845	159.24843	-442.22372	174.81400	202.62714	-460.44601	269.11032	148.83810	-437.60861	254.67897	197.46191	-489.27939	66.05047	116.36354	-464.64307	61.84246	160.59906	-542.22076	25.31807	153.06026	-364.91956	33.29167	231.45706	-403.86929	28.00239	189.79645	-298.10519	27.38916	-244.93047	-410.14795	765.50909	-198.40161	-446.02094	605.17432	-199.61853	-372.83090	681.32941	-216.67693	-428.66559	687.32806	-177.30783	-469.23959	485.39926	-26.95817	-482.09695	474.85788	-118.60826	-433.25690	339.93887	-138.99495	-450.75809	169.40132	-184.23218	-465.60992	261.35562	-127.36715	-442.97293	253.98322	-172.45689	-496.41156	62.43172	-89.21830	-473.34479	56.41322	-132.71552	-553.96039	28.92320	-123.47645	-372.43750	27.54893	-199.12956	-410.97159	25.10927	-160.53540	-305.66672	22.53512 
38	0.185	-50.86118	-365.27527	1605.62109	43.35469	-364.17920	1600.83936	-81.89732	-519.33099	1560.18018	61.76582	-518.09033	1561.82068	-13.48984	-558.70209	1420.44727	-22.59325	-577.64362	1141.86707	-14.60350	-411.39532	1365.93469	-11.06752	-344.35596	1279.09607	89.37831	-594.70959	1314.13989	-147.03128	-308.17679	969.00745	139.85255	-331.15228	986.41876	-67.20549	-556.51465	976.72949	21.47299	-562.68872	979.17010	107.68607	-506.35165	1417.53528	280.03012	-521.53162	1391.55029	398.43848	-537.87677	1335.19971	397.41547	-458.55045	1284.12109	534.34100	-533.67523	1308.54907	648.97192	-505.06458	1378.27905	653.77924	-491.39679	1309.97070	706.09576	-539.12115	1344.45642	-139.83362	-508.02539	1417.14722	-308.32629	-512.57678	1397.80212	-433.72726	-508.03064	1359.20703	-432.25241	-455.18500	1310.61487	-561.94025	-499.12585	1348.65576	-676.48029	-470.12070	1420.83154	-681.56525	-450.91690	1356.70093	-733.96649	-490.63010	1392.80005	221.31120	-412.07272	756.09253	196.07152	-444.53131	588.74854	186.03812	-374.88281	665.82867	206.41098	-430.08167	671.36694	181.13135	-464.09406	504.40359	30.78951	-463.15320	485.53128	135.95082	-426.37558	344.45923	159.26363	-442.23730	174.80603	202.62680	-460.43930	269.11407	148.67703	-437.56546	254.84476	197.46727	-489.34183	66.09800	116.34087	-464.65872	61.83488	160.78833	-542.11353	25.23092	153.03638	-364.96988	33.32733	231.46654	-403.87619	28.09448	189.78664	-298.14197	27.37238	-244.93465	-410.13992	765.51038	-198.41454	-446.03146	605.19934	-199.59492	-372.83340	681.33063	-216.70120	-428.65475	687.34943	-177.26712	-469.27155	485.35034	-26.85514	-482.27737	474.71750	-118.61913	-433.27957	339.92642	-138.98769	-450.75998	169.39857	-184.23004	-465.61218	261.35187	-127.37114	-442.96390	253.98431	-172.44286	-496.41061	62.44725	-89.25546	-473.53342	56.46384	-132.40868	-554.00494	28.90404	-123.46511	-372.43530	27.54804	-199.10562	-410.96008	25.09859	-160.49867	-305.63983	22.59092 
39	0.190	-50.91176	-365.35541	1605.70178	43.31525	-364.08746	1600.76404	-81.93626	-519.41034	1560.20154	61.62460	-518.73395	1561.60974	-13.48304	-558.70972	1420.44873	-22.57303	-577.66016	1141.86414	-14.58147	-411.39096	1365.95166	-11.07514	-344.38022	1279.10413	89.33862	-594.75769	1314.16077	-147.01678	-308.19446	968.99261	139.85948	-331.16516	986.43890	-67.18771	-556.47479	976.72113	21.32157	-562.87646	979.28296	107.69107	-506.32422	1417.54993	280.04559	-521.46185	1391.49207	398.42267	-537.90698	1335.20190	397.37268	-458.55341	1284.15442	534.33807	-533.67651	1308.56421	648.98132	-505.05344	1378.29480	653.73181	-491.25534	1309.99512	706.08624	-539.08801	1344.47168	-139.84976	-508.06168	1417.07690	-308.34027	-512.55603	1397.79736	-433.77148	-508.05844	1359.19702	-432.22461	-455.04294	1310.51147	-562.00842	-498.99387	1348.12964	-676.51099	-470.19452	1420.72681	-681.97870	-451.45453	1356.87610	-733.79016	-490.20154	1392.58716	221.33209	-412.09747	756.09595	196.08357	-444.53635	588.75525	186.04393	-374.91129	665.83344	206.40857	-430.09518	671.37952	181.13641	-464.10333	504.41287	30.95277	-462.82748	485.48700	135.94455	-426.31879	344.47464	159.28336	-442.24487	174.80592	202.61279	-460.44397	269.12073	148.52982	-437.51328	254.95921	197.41255	-489.36688	65.97507	116.32476	-464.67300	61.83097	160.94069	-541.93658	25.20152	153.05275	-364.95285	33.37312	231.24191	-403.83078	28.08246	189.78113	-298.15765	27.35215	-244.92722	-410.12900	765.50720	-198.43030	-446.04285	605.19305	-199.57005	-372.82736	681.32141	-216.71251	-428.64233	687.34900	-177.24792	-469.29514	485.27454	-26.78593	-482.36981	474.58139	-118.62667	-433.30582	339.92630	-138.98734	-450.76389	169.39967	-184.22520	-465.61804	261.35696	-127.37923	-442.95624	253.98877	-172.43971	-496.41071	62.45303	-89.38927	-473.66895	56.59312	-132.17477	-554.00885	28.85387	-123.46627	-372.44153	27.55392	-199.06697	-410.95132	25.07882	-160.47073	-305.65564	22.67528 
40	0.195	-50.97917	-365.43274	1605.75073	43.20643	-364.18341	1600.74451	-81.98881	-519.50342	1560.23206	61.52935	-519.21631	1561.46106	-13.47587	-558.71527	1420.44678	-22.56917	-577.69720	1141.84363	-14.56979	-411.39691	1365.96619	-11.07891	-344.40231	1279.10718	89.29143	-594.79730	1314.17480	-147.00278	-308.19919	968.98328	139.86775	-331.20163	986.46344	-67.17094	-556.45313	976.70660	21.16218	-563.05066	979.37042	107.70210	-506.26990	1417.56165	280.06509	-521.40240	1391.46021	398.39951	-537.93402	1335.19910	397.32269	-458.56488	1284.17786	534.33923	-533.68152	1308.58191	648.98145	-505.05511	1378.31311	653.73663	-491.15048	1310.03748	706.06598	-539.07123	1344.48547	-139.86990	-508.08383	1417.05981	-308.37076	-512.56201	1397.79163	-433.80872	-508.08749	1359.18188	-432.18457	-454.90726	1310.37463	-562.17572	-498.80023	1347.43579	-676.56305	-470.26791	1420.61829	-682.18512	-451.88733	1356.96899	-733.66663	-489.79285	1392.35352	221.35315	-412.12079	756.09668	196.09331	-444.54047	588.75500	186.05038	-374.94360	665.83167	206.40999	-430.10352	671.38922	181.14236	-464.14761	504.41223	31.17076	-462.44736	485.37259	135.93965	-426.26373	344.48584	159.30383	-442.25418	174.80618	202.60086	-460.44540	269.12314	148.41109	-437.43832	255.07877	197.30205	-489.29309	65.73974	116.31647	-464.68460	61.83101	161.01912	-541.75366	25.15301	153.08353	-364.89633	33.38003	231.20866	-403.82919	28.17803	189.78307	-298.17200	27.37490	-244.89519	-410.11880	765.50250	-198.42828	-446.05331	605.18817	-199.54866	-372.82727	681.30219	-216.72235	-428.63571	687.31995	-177.24771	-469.31143	485.28568	-26.88298	-482.35345	474.37317	-118.63146	-433.32703	339.93500	-138.99719	-450.76215	169.40526	-184.23711	-465.61563	261.36301	-127.38032	-442.95316	253.99767	-172.45221	-496.42380	62.48460	-89.58972	-473.70389	56.81016	-132.16585	-553.92566	28.74709	-123.47754	-372.45255	27.55860	-199.02614	-410.95032	25.07919	-160.46501	-305.70651	22.75563 
